# xmcd CD database file
#
# Track frame offsets:
#	150
#	15025
#	35542
#	53179
#	75307
#	89962
#	106185
#	127743
#	148403
#	174782
#	197515
#	215354
#	245706
#
# Disc length: 3577 seconds
#
# Revision: 0
# Processed by: cddbd v1.5.2PL0 Copyright (c) Steve Scherf et al.
# Submitted via: CDex 1.51
#
DISCID=a40df70d
DTITLE=Horacio Larumbe - Una Noche en Rosario
DYEAR=2002
DGENRE=Jazz
TTITLE0=What is this thing called love
TTITLE1=I surrender dear
TTITLE2=Minha saudade
TTITLE3=Moon river
TTITLE4=Tu
TTITLE5=Pequeña
TTITLE6=How high the moon
TTITLE7=Waltz for Carl
TTITLE8=Gentle rain
TTITLE9=Good bait
TTITLE10=La puñalada
TTITLE11=A lo Horacio
TTITLE12=Chega de saudade
EXTD=YEAR: 2002
EXTT0=
EXTT1=
EXTT2=
EXTT3=
EXTT4=
EXTT5=
EXTT6=
EXTT7=
EXTT8=
EXTT9=
EXTT10=
EXTT11=
EXTT12=
PLAYORDER=
